# xmcd CD database file
#
# Track frame offsets:
#	150
#	24109
#	41216
#	61899
#	79641
#	93755
#	106777
#	123767
#	150709
#
# Disc length: 2339 seconds
#
# Revision: 0
# Processed by: cddbd v1.5.2PL0 Copyright (c) Steve Scherf et al.
# Submitted via: CDex 1.70beta2
#
DISCID=5a092109
DTITLE=CYTOKINE - Third-Rater
DYEAR=2006
DGENRE=東方アレンジ
TTITLE0=風神少女
TTITLE1=Oriental Dark Flight
TTITLE2=Demystify Feast
TTITLE3=東の国の眠らない夜
TTITLE4=天空のグリニッジ
TTITLE5=Missing Purple Power
TTITLE6=Flower Land
TTITLE7=車椅子の未来宇宙
TTITLE8=月まで届け不死の煙
EXTD=YEAR: 2006
EXTT0=
EXTT1=
EXTT2=
EXTT3=
EXTT4=
EXTT5=
EXTT6=
EXTT7=
EXTT8=
PLAYORDER=
